<?xml version="1.0" encoding="UTF-8"?>
<svg xmlns="http://www.w3.org/2000/svg" width="160" height="150" viewBox="0 0 160 150" fill="none">
  <defs>
    <linearGradient id="ground" x1="0" y1="0" x2="1" y2="1">
      <stop offset="0%" stop-color="#c7e7cd"/><stop offset="100%" stop-color="#95c8ad"/>
    </linearGradient>
    <linearGradient id="roofFace" x1="0" y1="0" x2="1" y2="1">
      <stop offset="0%" stop-color="#53aa8f"/><stop offset="100%" stop-color="#4b8e79"/>
    </linearGradient>
    <linearGradient id="wallL" x1="0" y1="0" x2="1" y2="1">
      <stop offset="0%" stop-color="#98dcc8"/><stop offset="100%" stop-color="#b6c2ce"/>
    </linearGradient>
    <linearGradient id="wallR" x1="0" y1="0" x2="1" y2="1">
      <stop offset="0%" stop-color="#c6d2df"/><stop offset="100%" stop-color="#98dcc8"/>
    </linearGradient>
    <radialGradient id="roofSpec" cx="40%" cy="30%" r="70%">
      <stop offset="0%" stop-color="#ffffff88"/><stop offset="100%" stop-color="#ffffff00"/>
    </radialGradient>
    <filter id="softShadow" x="-20%" y="-20%" width="140%" height="140%">
      <feDropShadow dx="0" dy="3" stdDeviation="2.6" flood-color="#122a38" flood-opacity="0.35"/>
    </filter>
  </defs>

  <ellipse cx="80" cy="122" rx="56" ry="14" fill="#173246" opacity="0.22"/>
  <polygon points="80,30 142,66 80,102 18,66" fill="url(#ground)" stroke="#6f9685" stroke-width="2"/>

  <g filter="url(#softShadow)">
    <polygon points="32,56 80,80 80,140 32,116" fill="url(#wallL)" stroke="#48545f" stroke-width="2.1"/>
    <polygon points="128,56 80,80 80,140 128,116" fill="url(#wallR)" stroke="#48545f" stroke-width="2.1"/>
    <polygon points="80,28 128,56 80,80 32,56" fill="url(#roofFace)" stroke="#48545f" stroke-width="2.3"/>
    <polygon points="80,28 128,56 80,80 32,56" fill="url(#roofSpec)"/>
  </g>

  <polygon points="80,62 89,67 89,98 80,93" fill="#a9754d" stroke="#564333" stroke-width="1.4"/>
  <polygon points="80,62 71,67 71,98 80,93" fill="#ca9264" stroke="#564333" stroke-width="1.4"/>

  
    <polyline points="45,70 80,88 115,70" stroke="#ffffff55" stroke-width="1.2"/>
    <polyline points="45,84 80,102 115,84" stroke="#00000022" stroke-width="1.1"/>
  
  <polygon points="97,64 106,69 106,74 97,69" fill="#f8efbd" stroke="#5f6771" stroke-width="0.9"/><polygon points="110,71 119,76 119,81 110,76" fill="#f8efbd" stroke="#5f6771" stroke-width="0.9"/><polygon points="97,72 106,77 106,82 97,77" fill="#cde8f8" stroke="#5f6771" stroke-width="0.9"/><polygon points="110,79 119,84 119,89 110,84" fill="#cde8f8" stroke="#5f6771" stroke-width="0.9"/><polygon points="97,80 106,85 106,90 97,85" fill="#f8efbd" stroke="#5f6771" stroke-width="0.9"/><polygon points="110,87 119,92 119,97 110,92" fill="#f8efbd" stroke="#5f6771" stroke-width="0.9"/><polygon points="97,88 106,93 106,98 97,93" fill="#f8efbd" stroke="#5f6771" stroke-width="0.9"/><polygon points="110,95 119,100 119,105 110,100" fill="#f8efbd" stroke="#5f6771" stroke-width="0.9"/><polygon points="97,96 106,101 106,106 97,101" fill="#cde8f8" stroke="#5f6771" stroke-width="0.9"/><polygon points="110,103 119,108 119,113 110,108" fill="#cde8f8" stroke="#5f6771" stroke-width="0.9"/>
  <polygon points="63,69 54,74 54,79 63,74" fill="#f8efbd" stroke="#5f6771" stroke-width="0.9"/><polygon points="50,76 41,81 41,86 50,81" fill="#f8efbd" stroke="#5f6771" stroke-width="0.9"/><polygon points="63,77 54,82 54,87 63,82" fill="#cde8f8" stroke="#5f6771" stroke-width="0.9"/><polygon points="50,84 41,89 41,94 50,89" fill="#cde8f8" stroke="#5f6771" stroke-width="0.9"/><polygon points="63,85 54,90 54,95 63,90" fill="#f8efbd" stroke="#5f6771" stroke-width="0.9"/><polygon points="50,92 41,97 41,102 50,97" fill="#f8efbd" stroke="#5f6771" stroke-width="0.9"/><polygon points="63,93 54,98 54,103 63,98" fill="#f8efbd" stroke="#5f6771" stroke-width="0.9"/><polygon points="50,100 41,105 41,110 50,105" fill="#f8efbd" stroke="#5f6771" stroke-width="0.9"/><polygon points="63,101 54,106 54,111 63,106" fill="#cde8f8" stroke="#5f6771" stroke-width="0.9"/><polygon points="50,108 41,113 41,118 50,113" fill="#cde8f8" stroke="#5f6771" stroke-width="0.9"/>

  <ellipse cx="80" cy="58" rx="12" ry="7" fill="#4b8e79" stroke="#3d4650" stroke-width="1.5"/>
  <text x="80" y="61" font-size="10" text-anchor="middle" fill="#ffffff" font-family="Verdana" font-weight="700">C</text>
  <rect x="73" y="32" width="14" height="8" rx="2" fill="#4b8e79" stroke="#424b56" stroke-width="1.2"/><rect x="76" y="26" width="8" height="6" rx="1.5" fill="#b9d4ea" stroke="#424b56" stroke-width="1"/>
  <ellipse cx="80" cy="25" rx="8" ry="4.2" fill="#8fe2cb" stroke="#4e5963" stroke-width="1.1"/><rect x="79" y="28" width="2" height="12" fill="#5f8578"/>
  </svg>
