<?xml version="1.0" encoding="UTF-8"?>
<svg xmlns="http://www.w3.org/2000/svg" width="128" height="128" viewBox="0 0 128 128" fill="none">
  <defs>
    <linearGradient id="basePlateair4" x1="0" y1="0" x2="1" y2="1">
      <stop offset="0%" stop-color="#7d8795"/>
      <stop offset="100%" stop-color="#9aa6b5"/>
    </linearGradient>
    <linearGradient id="wallLair4" x1="0" y1="0" x2="1" y2="1">
      <stop offset="0%" stop-color="#bcc8d2"/>
      <stop offset="100%" stop-color="#b9c6d2"/>
    </linearGradient>
    <linearGradient id="wallRair4" x1="0" y1="0" x2="1" y2="1">
      <stop offset="0%" stop-color="#cad5e1"/>
      <stop offset="100%" stop-color="#bcc8d2"/>
    </linearGradient>
  </defs>
  <ellipse cx="64" cy="116" rx="34" ry="9" fill="#143246" opacity="0.24"/>
  <polygon points="64,34 112,62 64,90 16,62" fill="url(#basePlateair4)" stroke="#597487" stroke-width="2"/>
  <polygon points="26,90 64,70 102,90 64,110" fill="#94a3af" stroke="#4f5f6d" stroke-width="1.6"/><line x1="64" y1="74" x2="64" y2="106" stroke="#ecf0f6" stroke-width="2" stroke-dasharray="4 4"/>
  
  
  <ellipse cx="64" cy="84" rx="24" ry="10" fill="#8fe7ff33"/>
  <polygon points="64,44 96,68.66666666666667 64,87 32,68.66666666666667" fill="#8a96a3" stroke="#42535f" stroke-width="2"/>
  <polygon points="32,68.66666666666667 64,87 64,119 32,100.66666666666667" fill="url(#wallLair4)" stroke="#42535f" stroke-width="2"/>
  <polygon points="96,68.66666666666667 64,87 64,119 96,100.66666666666667" fill="url(#wallRair4)" stroke="#42535f" stroke-width="2"/>
  <rect x="56" y="54" width="16" height="22" rx="2" fill="#f2d287" stroke="#3b4a55" stroke-width="1.2"/>
  <circle cx="64" cy="52" r="5" fill="#ffe6a8" stroke="#475865" stroke-width="1.1"/>
  <rect x="54" y="96" width="20" height="8" rx="2" fill="#dbe6f2" stroke="#5a6a78" stroke-width="1.1"/>
  <text x="64" y="102" font-size="7" text-anchor="middle" fill="#3c4c58" font-family="Verdana" font-weight="700">AF</text>
  </svg>
