<?xml version="1.0" encoding="UTF-8"?>
<svg xmlns="http://www.w3.org/2000/svg" width="160" height="150" viewBox="0 0 160 150" fill="none">
  <defs>
    <linearGradient id="ground" x1="0" y1="0" x2="1" y2="1">
      <stop offset="0%" stop-color="#c7e7cd"/><stop offset="100%" stop-color="#95c8ad"/>
    </linearGradient>
    <linearGradient id="roofFace" x1="0" y1="0" x2="1" y2="1">
      <stop offset="0%" stop-color="#7f8faa"/><stop offset="100%" stop-color="#6a7b96"/>
    </linearGradient>
    <linearGradient id="wallL" x1="0" y1="0" x2="1" y2="1">
      <stop offset="0%" stop-color="#b8c2d5"/><stop offset="100%" stop-color="#b6c2ce"/>
    </linearGradient>
    <linearGradient id="wallR" x1="0" y1="0" x2="1" y2="1">
      <stop offset="0%" stop-color="#c6d2df"/><stop offset="100%" stop-color="#b8c2d5"/>
    </linearGradient>
    <radialGradient id="roofSpec" cx="40%" cy="30%" r="70%">
      <stop offset="0%" stop-color="#ffffff88"/><stop offset="100%" stop-color="#ffffff00"/>
    </radialGradient>
    <filter id="softShadow" x="-20%" y="-20%" width="140%" height="140%">
      <feDropShadow dx="0" dy="3" stdDeviation="2.6" flood-color="#122a38" flood-opacity="0.35"/>
    </filter>
  </defs>

  <ellipse cx="80" cy="122" rx="56" ry="14" fill="#173246" opacity="0.22"/>
  <polygon points="80,30 142,66 80,102 18,66" fill="url(#ground)" stroke="#6f9685" stroke-width="2"/>

  <g filter="url(#softShadow)">
    <polygon points="32,58 80,82 80,131 32,107" fill="url(#wallL)" stroke="#48545f" stroke-width="2.1"/>
    <polygon points="128,58 80,82 80,131 128,107" fill="url(#wallR)" stroke="#48545f" stroke-width="2.1"/>
    <polygon points="80,31 128,58 80,82 32,58" fill="url(#roofFace)" stroke="#48545f" stroke-width="2.3"/>
    <polygon points="80,31 128,58 80,82 32,58" fill="url(#roofSpec)"/>
  </g>

  <polygon points="80,64 89,69 89,100 80,95" fill="#a9754d" stroke="#564333" stroke-width="1.4"/>
  <polygon points="80,64 71,69 71,100 80,95" fill="#ca9264" stroke="#564333" stroke-width="1.4"/>

  
    <polyline points="45,72 80,90 115,72" stroke="#ffffff55" stroke-width="1.2"/>
    <polyline points="45,86 80,104 115,86" stroke="#00000022" stroke-width="1.1"/>
  
  <polygon points="97,66 106,71 106,76 97,71" fill="#f8efbd" stroke="#5f6771" stroke-width="0.9"/><polygon points="110,73 119,78 119,83 110,78" fill="#f8efbd" stroke="#5f6771" stroke-width="0.9"/><polygon points="97,74 106,79 106,84 97,79" fill="#f8efbd" stroke="#5f6771" stroke-width="0.9"/><polygon points="110,81 119,86 119,91 110,86" fill="#f8efbd" stroke="#5f6771" stroke-width="0.9"/><polygon points="97,82 106,87 106,92 97,87" fill="#cde8f8" stroke="#5f6771" stroke-width="0.9"/><polygon points="110,89 119,94 119,99 110,94" fill="#cde8f8" stroke="#5f6771" stroke-width="0.9"/>
  <polygon points="63,71 54,76 54,81 63,76" fill="#f8efbd" stroke="#5f6771" stroke-width="0.9"/><polygon points="50,78 41,83 41,88 50,83" fill="#f8efbd" stroke="#5f6771" stroke-width="0.9"/><polygon points="63,79 54,84 54,89 63,84" fill="#f8efbd" stroke="#5f6771" stroke-width="0.9"/><polygon points="50,86 41,91 41,96 50,91" fill="#f8efbd" stroke="#5f6771" stroke-width="0.9"/><polygon points="63,87 54,92 54,97 63,92" fill="#cde8f8" stroke="#5f6771" stroke-width="0.9"/><polygon points="50,94 41,99 41,104 50,99" fill="#cde8f8" stroke="#5f6771" stroke-width="0.9"/>

  <ellipse cx="80" cy="60" rx="12" ry="7" fill="#6a7b96" stroke="#3d4650" stroke-width="1.5"/>
  <text x="80" y="63" font-size="10" text-anchor="middle" fill="#ffffff" font-family="Verdana" font-weight="700">S</text>
  <polygon points="72,38 80,34 88,38 80,42" fill="#6a7b96" stroke="#424b56" stroke-width="1.2"/>
  <rect x="75" y="23" width="10" height="12" rx="2" fill="#8396b3" stroke="#4e5963" stroke-width="1.1"/><path d="M80 21 L86 26 L74 26 Z" fill="#a7b6cf"/>
  </svg>
