<?xml version="1.0" encoding="UTF-8"?>
<svg xmlns="http://www.w3.org/2000/svg" width="128" height="120" viewBox="0 0 128 120" fill="none">
  <defs>
    <linearGradient id="ground" x1="0" y1="0" x2="1" y2="1">
      <stop offset="0%" stop-color="#b3dbc5"/><stop offset="100%" stop-color="#95c9af"/>
    </linearGradient>
  </defs>
  <polygon points="64,22 118,54 64,86 10,54" fill="url(#ground)" stroke="#6f9685" stroke-width="2"/>

  <polygon points="38,48 90,48 90,92 38,92" fill="#b8c2d5" stroke="#564f46" stroke-width="2"/>
  <polygon points="38,48 64,32 90,48" fill="#7f8faa" stroke="#564f46" stroke-width="2"/>
  <rect x="57" y="70" width="14" height="22" rx="2" fill="#6a7b96"/>
  <rect x="42" y="60" width="6" height="5" rx="1" fill="#fff5c9"/><rect x="54" y="60" width="6" height="5" rx="1" fill="#fff5c9"/><rect x="68" y="60" width="6" height="5" rx="1" fill="#fff5c9"/><rect x="80" y="60" width="6" height="5" rx="1" fill="#fff5c9"/><rect x="42" y="70" width="6" height="5" rx="1" fill="#fff5c9"/><rect x="54" y="70" width="6" height="5" rx="1" fill="#fff5c9"/><rect x="68" y="70" width="6" height="5" rx="1" fill="#fff5c9"/><rect x="80" y="70" width="6" height="5" rx="1" fill="#fff5c9"/><rect x="42" y="80" width="6" height="5" rx="1" fill="#fff5c9"/><rect x="54" y="80" width="6" height="5" rx="1" fill="#fff5c9"/><rect x="68" y="80" width="6" height="5" rx="1" fill="#fff5c9"/><rect x="80" y="80" width="6" height="5" rx="1" fill="#fff5c9"/>
  <circle cx="64" cy="42" r="6" fill="#6a7b96"/>
  <text x="64" y="46" font-size="8" text-anchor="middle" fill="#ffffff" font-family="Verdana">S</text>
  <text x="64" y="110" font-size="10" text-anchor="middle" fill="#2f3a3b" font-family="Verdana">Security L2</text>
  </svg>
