<?xml version="1.0" encoding="UTF-8"?>
<svg xmlns="http://www.w3.org/2000/svg" width="128" height="128" viewBox="0 0 128 128" fill="none">
  <ellipse cx="64" cy="112" rx="56" ry="11" fill="#153244" opacity="0.24"/>
  <polygon points="64,14 120,34 64,54 8,34" fill="#c3e2b9" stroke="#5f8e68" stroke-width="2"/>
  <polygon points="8,34 64,54 64,88 8,68" fill="#93c5a1" stroke="#5f8e68" stroke-width="2"/>
  <polygon points="120,34 64,54 64,88 120,68" fill="#8ab89a" stroke="#5f8e68" stroke-width="2"/>
  <polygon points="16,40 64,52 112,40 64,16" fill="#d9efcc" stroke="#6d9b77" stroke-width="1.4"/>
  <polygon points="24,58 34,52 44,58 34,64" fill="#f0e0c4" stroke="#6f665d" stroke-width="1"/><rect x="32.2" y="55" width="3.6" height="8" rx="1" fill="#8d6648"/><polygon points="44,62 54,56 64,62 54,68" fill="#f0e0c4" stroke="#6f665d" stroke-width="1"/><rect x="52.2" y="59" width="3.6" height="8" rx="1" fill="#8d6648"/><polygon points="64,58 74,52 84,58 74,64" fill="#f0e0c4" stroke="#6f665d" stroke-width="1"/><rect x="72.2" y="55" width="3.6" height="8" rx="1" fill="#8d6648"/><polygon points="84,62 94,56 104,62 94,68" fill="#f0e0c4" stroke="#6f665d" stroke-width="1"/><rect x="92.2" y="59" width="3.6" height="8" rx="1" fill="#8d6648"/>
  <polygon points="50,36 64,27 78,36 64,45" fill="#9bc9df" stroke="#5f7f92" stroke-width="1.4"/>
  <rect x="58" y="24" width="12" height="6" rx="2" fill="#f5cb77" stroke="#86673e" stroke-width="1.1"/>
  </svg>
