<?xml version="1.0" encoding="UTF-8"?>
<svg xmlns="http://www.w3.org/2000/svg" width="128" height="128" viewBox="0 0 128 128" fill="none">
  <ellipse cx="64" cy="112" rx="48" ry="10" fill="#153244" opacity="0.24"/>
  <polygon points="64,16 115,34 64,52 13,34" fill="#c3e2b9" stroke="#5f8e68" stroke-width="2"/>
  <polygon points="13,34 64,52 64,86 13,68" fill="#93c5a1" stroke="#5f8e68" stroke-width="2"/>
  <polygon points="115,34 64,52 64,86 115,68" fill="#8ab89a" stroke="#5f8e68" stroke-width="2"/>
  <polygon points="21,40 64,50 107,40 64,18" fill="#d9efcc" stroke="#6d9b77" stroke-width="1.4"/>
  <polygon points="34,58 44,52 54,58 44,64" fill="#f0e0c4" stroke="#6f665d" stroke-width="1"/><rect x="42.2" y="55" width="3.6" height="8" rx="1" fill="#8d6648"/><polygon points="54,62 64,56 74,62 64,68" fill="#f0e0c4" stroke="#6f665d" stroke-width="1"/><rect x="62.2" y="59" width="3.6" height="8" rx="1" fill="#8d6648"/><polygon points="74,58 84,52 94,58 84,64" fill="#f0e0c4" stroke="#6f665d" stroke-width="1"/><rect x="82.2" y="55" width="3.6" height="8" rx="1" fill="#8d6648"/>
  <polygon points="50,36 64,27 78,36 64,45" fill="#9bc9df" stroke="#5f7f92" stroke-width="1.4"/>
  
  </svg>
