<?xml version="1.0" encoding="UTF-8"?>
<svg xmlns="http://www.w3.org/2000/svg" width="128" height="128" viewBox="0 0 128 128" fill="none">
  <ellipse cx="64" cy="112" rx="40" ry="9" fill="#153244" opacity="0.24"/>
  <polygon points="64,18 110,34 64,50 18,34" fill="#c3e2b9" stroke="#5f8e68" stroke-width="2"/>
  <polygon points="18,34 64,50 64,84 18,68" fill="#93c5a1" stroke="#5f8e68" stroke-width="2"/>
  <polygon points="110,34 64,50 64,84 110,68" fill="#8ab89a" stroke="#5f8e68" stroke-width="2"/>
  <polygon points="26,40 64,48 102,40 64,20" fill="#d9efcc" stroke="#6d9b77" stroke-width="1.4"/>
  <polygon points="44,58 54,52 64,58 54,64" fill="#f0e0c4" stroke="#6f665d" stroke-width="1"/><rect x="52.2" y="55" width="3.6" height="8" rx="1" fill="#8d6648"/><polygon points="64,62 74,56 84,62 74,68" fill="#f0e0c4" stroke="#6f665d" stroke-width="1"/><rect x="72.2" y="59" width="3.6" height="8" rx="1" fill="#8d6648"/>
  
  
  </svg>
