<?xml version="1.0" encoding="UTF-8"?>
<svg xmlns="http://www.w3.org/2000/svg" width="128" height="128" viewBox="0 0 128 128" fill="none">
  <ellipse cx="64" cy="108" rx="22" ry="7" fill="#153244" opacity="0.25"/>
  <polygon points="40,66 64,52 88,66 64,80" fill="#d77c63" stroke="#6d4f46" stroke-width="2"/>
  <polygon points="40,66 64,80 64,102 40,88" fill="#f3d9b2" stroke="#6d4f46" stroke-width="2"/>
  <polygon points="88,66 64,80 64,102 88,88" fill="#d5e2ea" stroke="#6d4f46" stroke-width="2"/>
  <polygon points="64,84 72,88 72,104 64,100" fill="#966a4e"/>
  <polygon points="64,84 56,88 56,104 64,100" fill="#b37d59"/>
  <polygon points="52,80 58,83 58,90 52,87" fill="#eaf7ff"/>
  <polygon points="76,80 82,83 82,90 76,87" fill="#eaf7ff"/>
  </svg>
