<?xml version="1.0" encoding="UTF-8"?>
<svg xmlns="http://www.w3.org/2000/svg" width="128" height="128" viewBox="0 0 128 128" fill="none">
  <ellipse cx="64" cy="112" rx="24" ry="8" fill="#153244" opacity="0.25"/>
  <polygon points="64,22 94,38 64,54 34,38" fill="#5e7db2" stroke="#536171" stroke-width="2"/>
  <polygon points="34,38 64,54 64,102 34,86" fill="#9eb6d9" stroke="#536171" stroke-width="2"/>
  <polygon points="94,38 64,54 64,102 94,86" fill="#cad8e6" stroke="#536171" stroke-width="2"/>
  <polygon points="58,46 64,49 64,54 58,51" fill="#eef9ff"/><polygon points="70,52 76,55 76,60 70,57" fill="#eef9ff"/><polygon points="58,57 64,60 64,65 58,62" fill="#eef9ff"/><polygon points="70,63 76,66 76,71 70,68" fill="#eef9ff"/><polygon points="58,68 64,71 64,76 58,73" fill="#eef9ff"/><polygon points="70,74 76,77 76,82 70,79" fill="#eef9ff"/><polygon points="58,79 64,82 64,87 58,84" fill="#eef9ff"/><polygon points="70,85 76,88 76,93 70,90" fill="#eef9ff"/><polygon points="58,90 64,93 64,98 58,95" fill="#eef9ff"/><polygon points="70,96 76,99 76,104 70,101" fill="#eef9ff"/><polygon points="58,101 64,104 64,109 58,106" fill="#eef9ff"/><polygon points="70,107 76,110 76,115 70,112" fill="#eef9ff"/>
  </svg>
